<?xml version="1.0" encoding="windows-1252"?><svg xmlns="http://www.w3.org/2000/svg" xmlns:xlink="http://www.w3.org/1999/xlink" version="1.1" id="Capa_1" x="0px" y="0px" viewBox="0 0 511.999 511.999" style="enable-background:new 0 0 511.999 511.999;" xml:space="preserve" width="512px" height="512px"><path style="fill:#8AA3A3;" d="M303.709,0C189.017,0,95.707,93.31,95.707,208.002s93.31,208.002,208.002,208.002  s208.002-93.31,208.002-208.002S418.401,0,303.709,0z"/><path style="fill:#ECF0F0;" d="M303.709,56c-83.814,0-152.001,68.188-152.001,152.001s68.188,152.001,152.001,152.001  S455.71,291.815,455.71,208.002S387.523,56,303.709,56z"/><path style="fill:#F7B906;" d="M303.709,112.001c-52.935,0-96.001,43.065-96.001,96.001s43.065,96.001,96.001,96.001  s96.001-43.065,96.001-96.001S356.643,112.001,303.709,112.001z"/><path style="fill:#F37121;" d="M303.709,160.001c-26.468,0-48,21.533-48,48s21.532,48,48,48s48-21.533,48-48  S330.176,160.001,303.709,160.001z"/><path style="fill:#507575;" d="M347.524,289.974c-2.828,0-5.569-1.503-7.023-4.159l-38.426-70.168  c-2.122-3.875-0.701-8.737,3.174-10.859c3.876-2.122,8.738-0.702,10.859,3.174l38.426,70.168c2.122,3.875,0.701,8.737-3.174,10.859  C350.14,289.657,348.823,289.974,347.524,289.974z"/><path style="fill:#C5D1D1;" d="M353.209,276.35l-13.494,7.39l12.865,56.802c0.555,2.448,2.227,4.495,4.515,5.526  c1.048,0.472,2.169,0.707,3.288,0.707c1.325,0,2.648-0.33,3.843-0.983l28.066-15.37c2.201-1.206,3.71-3.375,4.073-5.859  c0.363-2.484-0.461-4.994-2.225-6.78L353.209,276.35z"/><path style="fill:#AEBB32;" d="M395.467,319.563l-42.1,23.056l46.11,84.202c1.454,2.656,4.195,4.159,7.023,4.159  c1.299,0,2.616-0.317,3.836-0.985l28.067-15.37c1.86-1.019,3.24-2.735,3.836-4.772c0.596-2.037,0.357-4.226-0.662-6.087  L395.467,319.563z"/><path style="fill:#F3561D;" d="M497.927,441.795l-58.808-40.764c-2.491-1.727-5.742-1.898-8.4-0.442l-28.067,15.371  c-2.657,1.456-4.265,4.288-4.151,7.315l2.674,71.505c0.128,3.441,2.444,6.414,5.75,7.38l32.578,9.522  c2.021,0.591,4.24,0.349,6.087-0.662l42.101-23.056c1.86-1.019,3.24-2.735,3.836-4.772l9.522-32.578  C502.014,447.31,500.758,443.756,497.927,441.795z"/><path style="fill:#ED3124;" d="M406.924,502.16l32.578,9.522c2.021,0.591,4.24,0.349,6.087-0.662l21.05-11.528l-49.954-91.218  l-14.033,7.686c-2.657,1.456-4.265,4.288-4.151,7.315l2.674,71.505C401.302,498.221,403.618,501.194,406.924,502.16z"/><path style="fill:#507575;" d="M210.91,322.422c-2.018,0-4.038-0.759-5.594-2.281c-3.159-3.09-3.214-8.155-0.125-11.313  l55.945-57.186c3.091-3.158,8.154-3.214,11.313-0.125c3.158,3.09,3.214,8.155,0.124,11.313l-55.945,57.186  C215.062,321.618,212.987,322.422,210.91,322.422z"/><path style="fill:#C5D1D1;" d="M217.946,318.229l-10.997-10.759l-50.598,28.842c-2.181,1.243-3.652,3.438-3.973,5.928  c-0.147,1.14-0.045,2.281,0.281,3.352c0.386,1.268,1.086,2.438,2.059,3.39l22.874,22.377c1.794,1.755,4.309,2.567,6.791,2.192  s4.644-1.895,5.839-4.102L217.946,318.229z"/><path style="fill:#AEBB32;" d="M188.905,371.235l-34.311-33.566L87.46,406.291c-2.118,2.164-2.757,5.224-1.934,7.93  c0.378,1.243,1.065,2.411,2.059,3.383l22.874,22.378c1.516,1.483,3.56,2.304,5.682,2.281c2.122-0.023,4.147-0.888,5.631-2.405  L188.905,371.235z"/><path style="fill:#F3561D;" d="M101.787,504.838l21.881-68.127c0.927-2.886,0.144-6.046-2.022-8.165l-22.875-22.378  c-2.166-2.118-5.343-2.832-8.207-1.842l-67.631,23.371c-3.255,1.124-5.424,4.205-5.387,7.649l0.372,33.939  c0.023,2.106,0.9,4.158,2.405,5.631l34.312,33.567c1.516,1.483,3.56,2.304,5.682,2.281l33.939-0.372  C97.701,510.353,100.735,508.116,101.787,504.838z"/><path style="fill:#ED3124;" d="M17.548,435.345l0.372,33.939c0.023,2.106,0.9,4.158,2.405,5.631l17.156,16.783l72.728-74.343  l-11.437-11.189c-2.166-2.118-5.343-2.832-8.207-1.842l-67.631,23.371C19.68,428.82,17.511,431.901,17.548,435.345z"/><path style="fill:#507575;" d="M308.997,192.28c-1.12,0-2.257-0.236-3.341-0.735l-72.669-33.456  c-4.013-1.848-5.769-6.599-3.921-10.613c1.848-4.014,6.598-5.771,10.613-3.921l72.669,33.456c4.014,1.848,5.769,6.599,3.921,10.613  C314.92,190.552,312.023,192.28,308.997,192.28z"/><path style="fill:#C5D1D1;" d="M235.112,158.727l6.434-13.975L197.369,106.8c-1.904-1.636-4.466-2.283-6.918-1.748  c-1.123,0.245-2.163,0.725-3.062,1.391c-1.064,0.79-1.931,1.843-2.5,3.079l-13.382,29.067c-1.049,2.28-0.969,4.921,0.22,7.132  c1.188,2.211,3.346,3.736,5.827,4.12L235.112,158.727z"/><path style="fill:#AEBB32;" d="M175.428,149.202l20.073-43.601l-87.202-40.148c-2.75-1.266-5.847-0.84-8.118,0.845  c-1.043,0.774-1.912,1.813-2.494,3.077L84.303,98.443c-0.887,1.927-0.972,4.127-0.237,6.118c0.735,1.991,2.231,3.607,4.159,4.494  L175.428,149.202z"/><path style="fill:#F3561D;" d="M20.31,112.086l71.518-2.302c3.029-0.098,5.742-1.897,7.01-4.65l13.383-29.068  c1.267-2.752,0.87-5.984-1.025-8.349L66.442,11.884c-2.153-2.687-5.785-3.694-9.015-2.501L25.59,21.147  c-1.975,0.73-3.613,2.246-4.494,4.159L1.022,68.908c-0.887,1.927-0.972,4.127-0.237,6.118l11.764,31.837  C13.742,110.093,16.868,112.197,20.31,112.086z"/><path style="fill:#ED3124;" d="M57.427,9.383L25.59,21.147c-1.975,0.73-3.613,2.246-4.494,4.159l-10.036,21.8l94.47,43.492  l6.691-14.534c1.267-2.752,0.87-5.984-1.025-8.349L66.442,11.884C64.289,9.197,60.658,8.19,57.427,9.383z"/><g></g><g></g><g></g><g></g><g></g><g></g><g></g><g></g><g></g><g></g><g></g><g></g><g></g><g></g><g></g></svg>